<?xml version="1.0" encoding="utf-8"?>
<!-- Generator: Adobe Illustrator 18.0.0, SVG Export Plug-In . SVG Version: 6.00 Build 0)  -->
<!DOCTYPE svg PUBLIC "-//W3C//DTD SVG 1.1//EN" "http://www.w3.org/Graphics/SVG/1.1/DTD/svg11.dtd">
<svg version="1.1" id="Layer_1" xmlns="http://www.w3.org/2000/svg" xmlns:xlink="http://www.w3.org/1999/xlink" x="0px" y="0px"
	 viewBox="0 0 241.5 36.1" enable-background="new 0 0 241.5 36.1" xml:space="preserve">
<g>
	<path fill="#FFFFFF" d="M-1262.7,2340.6c0-178.3,0-356.6,0-534.9c533.5,0,1067.1,0,1600.8,0c0,178.3,0,356.6,0,534.9
		C-195.5,2340.6-729.1,2340.6-1262.7,2340.6z"/>
	<path fill="#FFFFFF" d="M-1134.1,2185.9c3.9,0,6.9,0,9.9,0c105.8,0,211.6,0,317.4,0.1c3.9,0,5.5-0.8,5.5-5.2
		c-0.1-70-0.1-139.9-0.1-209.9c0-4.1,0-8.2,0-12.8c-3.1,0-5.6,0-8.1,0c-106.1,0-212.3,0-318.4-0.1c-5.3,0-6.3,1.6-6.3,6.5
		c0.1,69.1,0.1,138.3,0.1,207.4C-1134.1,2176.2-1134.1,2180.7-1134.1,2185.9z"/>
	<path fill="#FFFFFF" d="M160.8,2150.7c0-60.5,0-120.6,0-180.7c-9.6,0-18.9,0-28.9,0c0,17.1,0,33.9,0,51.4
		c-5.1-3.7-9.2-7.1-13.7-9.8c-13.1-7.8-37.7-7.1-43.6,16.1c-2.7,10.8-2.9,22.3-3,33.6c-0.2,21.1-0.2,42.3,0.9,63.4
		c0.6,12.4,6,23.4,18.9,27.4c12.7,3.9,25,2.3,34.9-8c2.2-2.3,4.5-4.5,7.6-7.5c0,5.5,0,9.7,0,14.3
		C143.2,2150.7,151.9,2150.7,160.8,2150.7z"/>
	<path fill="#FFFFFF" d="M-477.8,2150.7c0-15.1,0-29.8,0-44.4c0-1.5-0.4-3.3,0.3-4.4c4.4-6.9,9.1-13.7,14.2-21.2
		c0.8,2.2,1.3,3.4,1.7,4.6c7,20.5,13.9,41,21,61.4c0.6,1.6,2.2,4,3.4,4c8.9,0.3,17.9,0.2,27.4,0.2c-1.1-3.3-2-5.9-2.9-8.5
		c-9.9-28-19.9-56.1-29.8-84.1c-0.6-1.7-0.7-4.4,0.2-5.8c4.3-6.7,9-13.1,13.5-19.7c5.1-7.4,10.1-14.9,15.7-23.1
		c-10.3,0-19.6-0.1-28.9,0.1c-1.5,0-3.5,1.6-4.4,3.1c-8.7,13.2-17.1,26.4-25.7,39.7c-1.4,2.2-3.1,4.3-4.6,6.4
		c-0.4-0.1-0.7-0.3-1.1-0.4c0-29.5,0-59.1,0-88.6c-9.8,0-19.1,0-28.5,0c0,60.3,0,120.4,0,180.8
		C-497,2150.7-487.7,2150.7-477.8,2150.7z"/>
	<path fill="#FFFFFF" d="M-628.3,2086.1c-0.6-15,0-29.2-1.9-43.1c-2.2-16.7-11.2-29.4-28.5-33.9c-9.6-2.5-19.4-2.5-29.1-0.4
		c-14.7,3.1-24.4,11.9-28.6,26c-2.1,7.1-3.3,14.7-3.3,22.1c-0.1,20.4-0.3,41,1.4,61.3c1.5,17.2,11.2,30.1,29,33.7
		c9.2,1.9,19.3,2.1,28.6,0.4c24.4-4.3,33.4-28.8,31.2-48.3c-9.3,0-18.5,0-27.9,0c-0.4,4-0.7,7.8-1.3,11.5c-1.3,8.8-7,14.1-15.1,14.3
		c-8.8,0.2-14.9-4.5-15.9-13.8c-1.1-9.7-1-19.5-1.5-29.8C-670.1,2086.1-649.8,2086.1-628.3,2086.1z"/>
	<path fill="#FFFFFF" d="M-407.5,2080.5c0.6,0,1.2,0,1.8,0.1c0,11.5-0.8,23,0.2,34.4c1.1,13.3,6.5,25,18.4,32.5
		c10.4,6.6,22.1,6.9,33.7,5.9c13.6-1.2,25.2-7,31.4-19.7c3-6.1,5.6-13.1,5.8-19.8c0.7-22.3,0.8-44.6-0.1-66.8
		c-0.3-7.4-3.5-15.3-7.2-21.9c-7-12.6-19.4-16.9-33.1-17.7c-24.7-1.5-44.1,8.1-48.2,35C-406.7,2054.9-406.7,2067.8-407.5,2080.5z"/>
	<path fill="#FFFFFF" d="M-169.9,2151c0-47.4,0-94.1,0-140.9c-9.8,0-19.2,0-28.9,0c0,2.2,0,4,0,5.8c0,33.5,0,67-0.1,100.5
		c0,1.9-0.6,4.6-2,5.6c-3.2,2.5-6.8,4.8-10.6,6.3c-10.7,4.2-16.9-0.1-16.9-11.4c0-33.7,0-67.3,0-101c0-1.9-0.2-3.9-0.3-5.8
		c-9.9,0-19.3,0-28.6,0c-0.2,0.6-0.4,0.9-0.4,1.2c0,39.2-0.2,78.3,0.1,117.5c0.1,7.5,2.8,14.6,9.1,19.8c8.8,7.2,18.9,6.6,28.3,3.2
		c8-2.9,15-8.5,22.7-13c0,2.4,0.1,5.5,0,8.6c-0.1,2.4,0.5,3.8,3.3,3.7C-186.2,2150.9-178.2,2151-169.9,2151z"/>
	<path fill="#FFFFFF" d="M-120.8,2150.7c0-2,0-3.8,0-5.6c0-31.8,0.4-63.6-0.2-95.5c-0.2-8.2,2.8-12.7,9.7-15.5
		c0.5-0.2,0.9-0.5,1.3-0.7c11.8-5.5,19.2-0.9,19.2,12.1c0,33.3,0,66.6,0,100c0,1.6,0,3.3,0,5.2c9.7,0,19.1,0,28.5,0
		c0.2-0.8,0.4-1.3,0.4-1.8c0-38.8,0.5-77.6-0.2-116.4c-0.3-14.5-7.8-23.8-21.9-25c-10.3-0.9-19.8,1.4-28,8.1
		c-3.1,2.6-6.3,5.1-10.5,8.4c0-5.4,0-9.7,0-13.9c-9.4,0-18.1,0-26.9,0c0,47.1,0,93.8,0,140.7
		C-139.8,2150.7-130.6,2150.7-120.8,2150.7z"/>
	<path fill="#FFFFFF" d="M-523,2061.2c0-2.4,0.1-4.3,0-6.1c-1.1-26.8-12.5-46.2-41.1-47.8c-28.5-1.6-47.5,11-49.4,41.6
		c-1.4,21.5-0.7,43.2,0,64.8c0.3,10.6,4.6,20.3,11.9,28.3c12.9,14.3,44.5,14.7,59.1,5.4c15.9-10.2,18.8-26.3,19.6-43.9
		c-9.9,0-19.4,0-29,0c-0.3,3.6-0.4,6.9-0.8,10.2c-0.9,6.5-3.2,12.3-10,14.9c-11.2,4.2-21.6-3-21.9-16.2c-0.5-21.3-0.4-42.6,0-64
		c0.2-10.4,6.4-16.9,15.1-17c10.2-0.2,15.9,5,16.9,15.5c0.4,4.7,0.6,9.5,0.9,14.2C-542.1,2061.2-532.8,2061.2-523,2061.2z"/>
	<path fill="#FFFFFF" d="M63.8,2126.9c-3.3,0-5.9,0-8.5,0c-7.5-0.1-11.1-3.3-11.1-10.9c-0.1-26.2,0-52.3-0.1-78.5
		c0-3.5,1.5-4.2,4.5-4.1c5,0.2,9.9,0,15,0c0-8.2,0-15.9,0-24.1c-6.7,0-12.9,0-19.6,0c0-13.4,0-26.4,0-39.5c-9.8,0-19.2,0-29.3,0
		c0,13.3,0,26.4,0,39.9c-5.7,0-10.8,0-16,0c0,8.1,0,15.7,0,23.7c5.4,0,10.5,0,16.2,0c0,2.5,0,4.4,0,6.4c0,27.2,0,54.3,0,81.5
		c0,12.4,3,23.3,15.5,28.8c10.7,4.7,21.9,3.8,33.3,2.1C63.8,2143.8,63.8,2135.7,63.8,2126.9z"/>
	<path fill="#FFFFFF" d="M-41.5,2150.7c9.7,0,18.9,0,28.3,0c0-60.5,0-120.6,0-180.8c-9.6,0-18.9,0-28.3,0
		C-41.5,2030.2-41.5,2090.3-41.5,2150.7z"/>
	<path fill="#FFFFFF" d="M-397.6,1993.8c24.7,0,48.9,0,73.4,0c0-8.1,0-15.8,0-23.7c-24.6,0-48.9,0-73.4,0
		C-397.6,1978.1-397.6,1985.7-397.6,1993.8z"/>
	<path fill="#FFFFFF" d="M-715.8,2000c-2.3-6.4-3.9-10.9-6-16.6c-7.3,4.4-13.8,8.3-20.9,12.6c0.6-2.1,1.2-3.7,1.5-5.2
		c1.3-5.6,2.8-11.2,3.7-16.9c0.2-1.1-1.5-3.6-2.4-3.7c-4.4-0.4-8.9-0.2-14.8-0.2c2.1,8.8,4.1,16.8,6,24.7
		c-5.6-3.2-10.8-6.4-16.2-9.1c-1.1-0.5-3.8,0-4.4,0.9c-2.1,3.5-3.5,7.3-5.6,11.9c8.2,1.8,15.6,3.5,23.5,5.3
		c-6.3,4.7-14.8,5.5-17.7,14c3.7,2.9,7.6,5.8,11.8,9.1c4.2-7.1,8.1-13.6,12.1-20.3c4.2,7.1,8.1,13.8,12.3,20.9
		c4.4-3.8,7.9-6.8,12.4-10.6c-6.4-5.1-12.3-9.7-18.2-14.4C-731,2001.5-723.9,2000.8-715.8,2000z"/>
	<path fill="#FFFFFF" d="M198.9,2150.4c0-8.1,0-15.7,0-23.5c-8.1,0-16,0-24,0c0,8,0,15.7,0,23.5
		C183,2150.4,190.7,2150.4,198.9,2150.4z"/>
	<path fill="#FFFFFF" d="M191.5,1969.8c-9.5,0.1-16.8,6.9-16.6,15.5c0.1,8.7,7.5,15.3,17,15.2c9.5-0.1,17.2-7.2,17-15.8
		C208.5,1976.2,201,1969.7,191.5,1969.8z"/>
	<path d="M-1134.1,2185.9c0-5.2,0-9.6,0-14.1c0-69.1,0.1-138.3-0.1-207.4c0-4.9,1-6.5,6.3-6.5c106.1,0.2,212.3,0.1,318.4,0.1
		c2.5,0,5,0,8.1,0c0,4.6,0,8.7,0,12.8c0,70-0.1,139.9,0.1,209.9c0,4.4-1.5,5.2-5.5,5.2c-105.8-0.1-211.6-0.1-317.4-0.1
		C-1127.2,2185.9-1130.2,2185.9-1134.1,2185.9z M-922,2081c2.3,0,4.7-0.3,7,0.1c1.5,0.3,3.5,1.3,3.9,2.5c1.5,3.8,2.2,8,3.5,11.9
		c1.1,3.5,1,6.5-1.6,9.3c-3.1,3.3-1.1,5,2,6.2c5.2,1.9,9.8,0,14.2-2.6c0.7-0.4,1.3-1.6,1.4-2.5c0.5-4.1,1.3-8.3,1-12.4
		c-0.6-7.5,2.5-13.9,5.6-20.3c4.8-9.7,3.2-17.9-5.1-24.7c-2.7-2.2-5.5-4.3-8.2-6.5c-12.9-10.4-27.4-13.6-43.1-8.5
		c-10.1,3.3-19.2,2-28.3-2.7c-6.5-3.4-13.5-4.7-20.8-3c-10.3,2.3-19.9,6.4-28.4,12.7c-4.9,3.7-9.7,5.8-15.7,2.4
		c-0.8-0.4-3.2,0.5-3.7,1.4c-3.3,6.1-6.4,12.4-9.5,18.6c-0.2,0.4,0,1-0.2,1.5c-0.9,2-1.6,4-2.8,5.8c-4,5.9-6.8,5.7-10.2-0.4
		c-0.5-0.9-1.7-2.3-2.3-2.1c-1.1,0.3-2.3,1.3-2.9,2.3c-2.2,4.1-2.4,8.4-0.1,12.4c1.9,3.3,2.7,6.4,1.7,10.3c-0.5,2.1,0.7,5.5,2.3,6.8
		c1.1,0.9,4.4-0.4,6.5-1c5.8-1.8,11.6-3.7,17.3-5.6c3.9-1.2,7.8-2.3,11.6-3.7c3.4-1.2,7.1-4.6,9.9-3.9c7,1.7,9.7-3.5,12.9-6.9
		c2.5-2.7,4-3.9,7.3-2c1.3,0.7,2.8,1.2,4.3,1.2c5.8,0.2,7.6,4.2,7.1,8.8c-0.5,4.5-2.2,8.9-3.6,13.3c-0.6,1.9-2.3,3.5-2.5,5.3
		c-0.1,1.1,1.4,3.3,2.5,3.4c3.6,0.6,7.3,1.1,10.9,0.6c2-0.2,4.5-2,5.4-3.8c2.8-5.8,4.9-11.9,7.3-17.9c1.1-2.7,2.7-3.1,5.5-2.1
		c7.1,2.5,14.7,2.9,21.3-0.8C-933.3,2081.3-927.9,2080.5-922,2081z M-1002.3,2156c0-0.3,0.1-0.6,0.1-1c9.3,0,18.7,0,28,0
		c3.3,0,4.9-1.1,4.7-4.7c-0.2-6-0.4-12,0-18c0.4-5.1-1.7-6.7-6.6-6.6c-15.7,0.2-31.3,0.1-47,0.1c-13.5-0.1-25.4-4.5-35.2-14
		c-9.4-9.1-14-20.5-16-33.1c-0.6-3.9-2.4-5.1-6-5c-4.2,0.1-8.3,0-12.5,0c-10.9-0.1-10.7-0.1-9.5,10.2c3.9,33.4,28,61.6,60.7,68.4
		C-1028.7,2155.1-1015.4,2154.9-1002.3,2156z M-933.1,2155c0,0.2,0,0.5,0,0.7c12.3-0.8,24.8-0.1,36.7-2.7
		c37-8.1,60.3-36.2,63.6-74.1c0.3-3.5-1-5-4.4-5c-5.2,0-10.3,0-15.5,0c-7.8,0-7.7,0-9.2,7.6c-2.5,12.9-8,24.3-18.2,32.9
		c-9.4,7.9-20.4,11.6-32.7,11.5c-15.7-0.1-31.3,0.1-47-0.1c-4.7-0.1-6.5,1.5-6.2,6.3c0.4,6,0.3,12,0,18c-0.1,3.7,1.1,5,4.9,5
		C-951.8,2154.9-942.4,2155-933.1,2155z M-1001.9,2019.2c0-0.3,0-0.5,0-0.8c8.8,0,17.7-0.1,26.5,0c4.1,0.1,6.1-1.2,5.8-5.8
		c-0.4-5.8-0.4-11.7,0-17.5c0.3-4.6-1.3-6.2-5.9-6.1c-15.3,0.2-30.7,0-46,0.2c-5.8,0.1-11.7,0.3-17.4,1.5
		c-36.8,8.1-61.1,36.9-64.1,74.5c-0.3,3.7,1.2,5.2,4.9,5.1c4.8-0.1,9.7,0,14.5,0c8.4,0,8.4,0,9.9-8.5c3.9-22,19.1-38.8,40.8-42.4
		C-1022.7,2017.8-1012.2,2019.2-1001.9,2019.2z M-933.2,1988.4c0,0.3,0,0.6-0.1,0.9c-9.3,0-18.7,0.1-28,0c-3.3,0-4.8,1-4.7,4.6
		c0.2,6.2,0.4,12.3,0,18.5c-0.4,5.1,1.8,6.2,6.4,6.2c15.7-0.2,31.3-0.1,47,0c14.9,0,27.5,5.4,37.6,16.5c7.4,8.3,11.6,18.1,13.3,29
		c0.7,4.8,2.6,7.1,7.8,6.6c5.3-0.5,10.7-0.2,16-0.1c4.6,0.2,6-2,5.1-6.2c-0.2-1.1-0.4-2.3-0.5-3.5c-3.4-34.1-28.3-62.7-62-69.3
		C-907.8,1989-920.6,1989.3-933.2,1988.4z M-923.7,2083.3c-9.7-0.6-9.4-0.6-10.4,8.7c-0.3,2.4-2.7,4.5-4.1,6.8
		c-0.6,1.1-1.8,2.3-1.6,3.2c0.2,1,1.7,2.1,2.8,2.4c3,0.7,6.2,1.3,9.3,1.2c1.5,0,4.3-1.3,4.4-2.3c0.4-4.8,4.3-6.7,6.8-9.9
		c1.5-1.9,2.1-5.1,1.9-7.7c-0.1-1-3.6-1.8-5.6-2.4C-921.3,2083-922.6,2083.3-923.7,2083.3z M-879.8,2059.1c-0.5,0.4-0.9,0.7-1.4,1.1
		c0.8,1.3,1.4,2.8,2.3,4c5.8,6.6,5.7,8.2-1.1,14.1c-1.5,1.3-3,2.8-3.8,4.5c-0.4,0.9,0.7,3.6,0.9,3.5c3.3-0.3,7.3,0.2,9.6-1.6
		c5.8-4.5,6.1-8.2,2.9-15.4C-872.4,2065-874.8,2060.6-879.8,2059.1z M-989.4,2092c4.2-4.2,2.7-7.9,0.9-10.8
		c-0.9-1.5-4.2-1.5-6.4-2.1c-0.3,0.6-0.6,1.1-0.9,1.7C-993.7,2084.3-991.8,2087.8-989.4,2092z M-988.3,2097.5
		c-2.1-1.1-3.4-2.2-3.7-1.9c-2,1.4-3.8,3.1-5.6,4.7c1,0.6,2.4,2.1,3,1.8C-992.7,2101.1-991,2099.5-988.3,2097.5z"/>
	<path d="M160.8,2150.7c-8.9,0-17.6,0-26.9,0c0-4.5,0-8.8,0-14.3c-3.1,3.1-5.5,5.3-7.6,7.5c-9.9,10.3-22.2,12-34.9,8
		c-12.8-4-18.2-15-18.9-27.4c-1.1-21.1-1.1-42.3-0.9-63.4c0.1-11.2,0.2-22.8,3-33.6c5.9-23.3,30.6-24,43.6-16.1
		c4.5,2.7,8.6,6.1,13.7,9.8c0-17.5,0-34.3,0-51.4c10,0,19.2,0,28.9,0C160.8,2030.1,160.8,2090.2,160.8,2150.7z M132.3,2080.5
		c0-12.5-0.1-25,0.1-37.5c0-3.3-1-5.5-3.8-6.8c-3-1.4-5.9-3.2-9-4.2c-8-2.4-14.9,1.4-17.1,9.2c-0.7,2.5-1.2,5.2-1.2,7.9
		c-0.1,21-0.2,42,0,63c0.1,6.5,1.4,13.1,7.7,16.3c6.5,3.4,12.9,0.8,18.7-3c0.3-0.2,0.5-0.4,0.8-0.5c2.9-1.6,4-3.8,3.9-7.3
		C132.1,2105.2,132.3,2092.8,132.3,2080.5z"/>
	<path d="M-477.8,2150.7c-9.9,0-19.2,0-28.7,0c0-60.4,0-120.4,0-180.8c9.4,0,18.7,0,28.5,0c0,29.6,0,59.1,0,88.6
		c0.4,0.1,0.7,0.3,1.1,0.4c1.6-2.1,3.2-4.2,4.6-6.4c8.6-13.2,17-26.5,25.7-39.7c0.9-1.4,2.9-3,4.4-3.1c9.3-0.3,18.6-0.1,28.9-0.1
		c-5.5,8.2-10.6,15.6-15.7,23.1c-4.5,6.6-9.2,13-13.5,19.7c-0.9,1.4-0.8,4-0.2,5.8c9.8,28.1,19.8,56.1,29.8,84.1
		c0.9,2.6,1.8,5.3,2.9,8.5c-9.5,0-18.5,0.2-27.4-0.2c-1.2,0-2.8-2.4-3.4-4c-7.1-20.4-14-41-21-61.4c-0.4-1.2-0.9-2.4-1.7-4.6
		c-5,7.5-9.7,14.2-14.2,21.2c-0.7,1.1-0.3,2.9-0.3,4.4C-477.8,2120.9-477.8,2135.6-477.8,2150.7z"/>
	<path d="M-628.3,2086.1c-21.5,0-41.8,0-62.9,0c0.5,10.3,0.4,20.1,1.5,29.8c1.1,9.3,7.1,14,15.9,13.8c8.1-0.2,13.7-5.4,15.1-14.3
		c0.6-3.7,0.8-7.5,1.3-11.5c9.4,0,18.7,0,27.9,0c2.1,19.5-6.8,44-31.2,48.3c-9.3,1.6-19.4,1.4-28.6-0.4c-17.7-3.6-27.5-16.5-29-33.7
		c-1.8-20.3-1.5-40.9-1.4-61.3c0-7.4,1.2-15,3.3-22.1c4.2-14.1,13.9-23,28.6-26c9.8-2.1,19.6-2.1,29.1,0.4
		c17.3,4.5,26.3,17.2,28.5,33.9C-628.3,2056.9-628.9,2071.1-628.3,2086.1z M-692,2061.8c11.6,0,21.4,0.1,31.2-0.2
		c1,0,2.9-2.3,2.8-3.4c-0.3-5.4-0.7-10.9-1.8-16.2c-1.3-5.9-6.4-10-11.8-10.5c-8.4-0.8-14.2,1.5-16.4,8.2
		C-690.1,2046.5-690.6,2053.8-692,2061.8z"/>
	<path d="M-407.5,2080.5c0.9-12.7,0.9-25.6,2.8-38.2c4.1-26.9,23.5-36.4,48.2-35c13.7,0.8,26.1,5.2,33.1,17.7
		c3.7,6.6,6.9,14.5,7.2,21.9c0.9,22.2,0.8,44.6,0.1,66.8c-0.2,6.7-2.8,13.7-5.8,19.8c-6.2,12.8-17.8,18.6-31.4,19.7
		c-11.6,1-23.3,0.7-33.7-5.9c-12-7.5-17.3-19.2-18.4-32.5c-1-11.4-0.2-22.9-0.2-34.4C-406.3,2080.5-406.9,2080.5-407.5,2080.5z
		 M-376.9,2080.4c0,10.7-0.1,21.3,0,32c0.1,8.3,4.3,14.4,10.5,16.5c11.6,3.8,21.2-3.4,21.5-17.3c0.5-20.6,0.3-41.3,0-61.9
		c-0.1-6.3-1.5-12.9-8-16.2c-10.2-5.1-23-1.6-24,14.6C-377.4,2058.8-376.9,2069.6-376.9,2080.4z"/>
	<path d="M-169.9,2151c-8.3,0-16.3-0.1-24.3,0c-2.8,0-3.4-1.3-3.3-3.7c0.1-3.1,0-6.2,0-8.6c-7.7,4.5-14.7,10.1-22.7,13
		c-9.4,3.4-19.6,3.9-28.3-3.2c-6.3-5.1-9-12.3-9.1-19.8c-0.3-39.2-0.1-78.3-0.1-117.5c0-0.3,0.2-0.6,0.4-1.2c9.3,0,18.7,0,28.6,0
		c0.1,2,0.3,3.9,0.3,5.8c0,33.7,0,67.3,0,101c0,11.3,6.2,15.6,16.9,11.4c3.8-1.5,7.4-3.8,10.6-6.3c1.3-1.1,2-3.7,2-5.6
		c0.1-33.5,0.1-67,0.1-100.5c0-1.8,0-3.6,0-5.8c9.7,0,19.1,0,28.9,0C-169.9,2056.9-169.9,2103.6-169.9,2151z"/>
	<path d="M-120.8,2150.7c-9.8,0-19.1,0-28.6,0c0-46.9,0-93.6,0-140.7c8.8,0,17.5,0,26.9,0c0,4.2,0,8.5,0,13.9
		c4.2-3.3,7.4-5.8,10.5-8.4c8.2-6.7,17.8-9,28-8.1c14.1,1.2,21.6,10.5,21.9,25c0.7,38.8,0.2,77.6,0.2,116.4c0,0.5-0.2,0.9-0.4,1.8
		c-9.4,0-18.7,0-28.5,0c0-1.9,0-3.5,0-5.2c0-33.3,0-66.6,0-100c0-12.9-7.4-17.6-19.2-12.1c-0.5,0.2-0.9,0.5-1.3,0.7
		c-6.9,2.9-9.9,7.3-9.7,15.5c0.6,31.8,0.2,63.6,0.2,95.5C-120.8,2146.9-120.8,2148.7-120.8,2150.7z"/>
	<path d="M-523,2061.2c-9.8,0-19.1,0-28.8,0c-0.3-4.8-0.5-9.5-0.9-14.2c-1-10.5-6.7-15.7-16.9-15.5c-8.6,0.2-14.9,6.6-15.1,17
		c-0.4,21.3-0.5,42.7,0,64c0.3,13.1,10.7,20.4,21.9,16.2c6.8-2.5,9.1-8.3,10-14.9c0.5-3.3,0.6-6.6,0.8-10.2c9.6,0,19.1,0,29,0
		c-0.9,17.5-3.8,33.7-19.6,43.9c-14.6,9.4-46.1,8.9-59.1-5.4c-7.3-8.1-11.6-17.7-11.9-28.3c-0.6-21.6-1.3-43.3,0-64.8
		c2-30.6,20.9-43.2,49.4-41.6c28.6,1.6,40,21,41.1,47.8C-522.9,2057-523,2058.8-523,2061.2z"/>
	<path d="M63.8,2126.9c0,8.8,0,16.9,0,25.5c-11.4,1.7-22.6,2.6-33.3-2.1c-12.5-5.5-15.5-16.4-15.5-28.8c0-27.2,0-54.3,0-81.5
		c0-2,0-3.9,0-6.4c-5.7,0-10.8,0-16.2,0c0-8.1,0-15.6,0-23.7c5.1,0,10.2,0,16,0c0-13.5,0-26.6,0-39.9c10.1,0,19.4,0,29.3,0
		c0,13.1,0,26.1,0,39.5c6.7,0,12.9,0,19.6,0c0,8.2,0,15.9,0,24.1c-5.1,0-10.1,0.1-15,0c-3-0.1-4.5,0.6-4.5,4.1
		c0.1,26.2,0,52.3,0.1,78.5c0,7.5,3.6,10.8,11.1,10.9C57.9,2127,60.5,2126.9,63.8,2126.9z"/>
	<path d="M-41.5,2150.7c0-60.4,0-120.4,0-180.8c9.5,0,18.7,0,28.3,0c0,60.2,0,120.3,0,180.8C-22.6,2150.7-31.8,2150.7-41.5,2150.7z"
		/>
	<path d="M-397.6,1993.8c0-8.1,0-15.7,0-23.7c24.4,0,48.8,0,73.4,0c0,7.9,0,15.7,0,23.7C-348.7,1993.8-372.9,1993.8-397.6,1993.8z"
		/>
	<path d="M-715.8,2000c-8.1,0.8-15.2,1.5-22.8,2.2c5.9,4.7,11.8,9.4,18.2,14.4c-4.5,3.9-8,6.8-12.4,10.6
		c-4.2-7.1-8.1-13.8-12.3-20.9c-4,6.8-7.9,13.3-12.1,20.3c-4.2-3.2-8-6.2-11.8-9.1c2.8-8.6,11.4-9.4,17.7-14
		c-7.9-1.8-15.4-3.5-23.5-5.3c2.1-4.6,3.6-8.4,5.6-11.9c0.5-0.9,3.3-1.5,4.4-0.9c5.4,2.7,10.6,5.9,16.2,9.1
		c-1.9-7.9-3.8-15.8-6-24.7c5.9,0,10.4-0.2,14.8,0.2c1,0.1,2.6,2.6,2.4,3.7c-1,5.7-2.4,11.3-3.7,16.9c-0.4,1.6-0.9,3.1-1.5,5.2
		c7.1-4.3,13.6-8.2,20.9-12.6C-719.8,1989.1-718.1,1993.6-715.8,2000z"/>
	<path d="M198.9,2150.4c-8.1,0-15.9,0-24,0c0-7.8,0-15.5,0-23.5c8,0,15.9,0,24,0C198.9,2134.7,198.9,2142.3,198.9,2150.4z"/>
	<path d="M191.5,1969.8c9.5-0.1,17,6.4,17.3,15c0.3,8.6-7.4,15.8-17,15.8c-9.5,0.1-16.8-6.5-17-15.2
		C174.8,1976.7,182,1969.9,191.5,1969.8z M205.6,1985.6c0.2-9-5.8-13.1-13.6-13.9c-6.8-0.7-13.7,5.9-14,12.7
		c-0.4,7.5,5.7,13.9,13.5,14.3C198.9,1999,205.3,1993.1,205.6,1985.6z"/>
	<path fill="#FFFFFF" d="M-922,2081c-5.9-0.5-11.3,0.3-16.8,3.4c-6.6,3.6-14.2,3.3-21.3,0.8c-2.8-1-4.5-0.5-5.5,2.1
		c-2.4,6-4.5,12.1-7.3,17.9c-0.9,1.8-3.4,3.6-5.4,3.8c-3.6,0.5-7.3,0-10.9-0.6c-1.1-0.2-2.6-2.4-2.5-3.4c0.2-1.8,1.9-3.4,2.5-5.3
		c1.4-4.4,3.1-8.8,3.6-13.3c0.5-4.6-1.2-8.6-7.1-8.8c-1.4-0.1-3-0.5-4.3-1.2c-3.3-1.8-4.8-0.6-7.3,2c-3.2,3.4-5.9,8.6-12.9,6.9
		c-2.8-0.7-6.5,2.7-9.9,3.9c-3.8,1.4-7.7,2.4-11.6,3.7c-5.8,1.9-11.5,3.8-17.3,5.6c-2.2,0.7-5.4,2-6.5,1c-1.6-1.4-2.8-4.8-2.3-6.8
		c1-3.9,0.2-7-1.7-10.3c-2.3-4-2.2-8.3,0.1-12.4c0.6-1,1.8-2,2.9-2.3c0.6-0.1,1.8,1.2,2.3,2.1c3.4,6.1,6.2,6.3,10.2,0.4
		c1.2-1.8,1.9-3.8,2.8-5.8c0.2-0.4,0-1,0.2-1.5c3.1-6.2,6.1-12.5,9.5-18.6c0.5-0.9,2.9-1.8,3.7-1.4c6,3.4,10.8,1.3,15.7-2.4
		c8.5-6.4,18.1-10.4,28.4-12.7c7.3-1.6,14.3-0.3,20.8,3c9.1,4.7,18.2,6,28.3,2.7c15.7-5.1,30.2-1.9,43.1,8.5
		c2.7,2.2,5.5,4.3,8.2,6.5c8.3,6.8,9.9,15,5.1,24.7c-3.2,6.4-6.2,12.7-5.6,20.3c0.3,4.1-0.5,8.3-1,12.4c-0.1,0.9-0.6,2.1-1.4,2.5
		c-4.4,2.6-9,4.5-14.2,2.6c-3.1-1.1-5.1-2.9-2-6.2c2.6-2.7,2.7-5.8,1.6-9.3c-1.3-3.9-2-8-3.5-11.9c-0.5-1.2-2.5-2.3-3.9-2.5
		C-917.3,2080.7-919.7,2081-922,2081z"/>
	<path fill="#FFFFFF" d="M-1002.3,2156c-13.1-1.1-26.4-0.9-39.1-3.5c-32.8-6.8-56.8-35-60.7-68.4c-1.2-10.3-1.4-10.3,9.5-10.2
		c4.2,0,8.3,0.1,12.5,0c3.6-0.1,5.4,1,6,5c1.9,12.6,6.6,24,16,33.1c9.8,9.5,21.7,13.9,35.2,14c15.7,0.1,31.3,0.1,47-0.1
		c4.9-0.1,6.9,1.5,6.6,6.6c-0.4,6-0.3,12,0,18c0.1,3.6-1.4,4.7-4.7,4.7c-9.3-0.1-18.7,0-28,0
		C-1002.3,2155.3-1002.3,2155.7-1002.3,2156z"/>
	<path fill="#FFFFFF" d="M-933.1,2155c-9.3,0-18.7-0.1-28,0.1c-3.7,0.1-5-1.3-4.9-5c0.2-6,0.4-12,0-18c-0.3-4.9,1.5-6.4,6.2-6.3
		c15.7,0.2,31.3,0,47,0.1c12.3,0,23.3-3.6,32.7-11.5c10.2-8.6,15.7-19.9,18.2-32.9c1.5-7.6,1.5-7.6,9.2-7.6c5.2,0,10.3,0,15.5,0
		c3.4,0,4.7,1.6,4.4,5c-3.2,37.9-26.6,66-63.6,74.1c-11.9,2.6-24.4,1.9-36.7,2.7C-933.1,2155.5-933.1,2155.2-933.1,2155z"/>
	<path fill="#FFFFFF" d="M-1001.9,2019.2c-10.3,0-20.9-1.4-30.9,0.3c-21.7,3.7-37,20.4-40.8,42.4c-1.5,8.5-1.5,8.5-9.9,8.5
		c-4.8,0-9.7-0.1-14.5,0c-3.6,0.1-5.2-1.4-4.9-5.1c3.1-37.6,27.4-66.4,64.1-74.5c5.6-1.2,11.6-1.4,17.4-1.5c15.3-0.2,30.7,0,46-0.2
		c4.6-0.1,6.2,1.5,5.9,6.1c-0.4,5.8-0.4,11.7,0,17.5c0.3,4.6-1.7,5.8-5.8,5.8c-8.8-0.1-17.7,0-26.5,0
		C-1001.9,2018.7-1001.9,2018.9-1001.9,2019.2z"/>
	<path fill="#FFFFFF" d="M-933.2,1988.4c12.6,1,25.4,0.7,37.7,3.1c33.7,6.7,58.6,35.2,62,69.3c0.1,1.2,0.3,2.3,0.5,3.5
		c0.9,4.2-0.5,6.3-5.1,6.2c-5.3-0.2-10.7-0.4-16,0.1c-5.2,0.4-7-1.8-7.8-6.6c-1.7-10.9-5.8-20.7-13.3-29
		c-10-11.1-22.6-16.5-37.6-16.5c-15.7,0-31.3-0.1-47,0c-4.6,0.1-6.7-1.1-6.4-6.2c0.4-6.1,0.3-12.3,0-18.5c-0.1-3.6,1.4-4.6,4.7-4.6
		c9.3,0.1,18.7,0,28,0C-933.2,1989-933.2,1988.7-933.2,1988.4z"/>
	<path fill="#FFFFFF" d="M-923.7,2083.3c1.2,0,2.4-0.3,3.5,0.1c2,0.6,5.5,1.4,5.6,2.4c0.2,2.5-0.4,5.7-1.9,7.7
		c-2.5,3.2-6.4,5.1-6.8,9.9c-0.1,0.9-2.9,2.2-4.4,2.3c-3.1,0-6.2-0.6-9.3-1.2c-1.1-0.2-2.5-1.4-2.8-2.4c-0.2-0.9,1-2.2,1.6-3.2
		c1.4-2.3,3.8-4.4,4.1-6.8C-933.1,2082.7-933.4,2082.7-923.7,2083.3z"/>
	<path fill="#FFFFFF" d="M-879.8,2059.1c5,1.5,7.4,5.9,9.4,10.3c3.3,7.2,2.9,10.8-2.9,15.4c-2.2,1.8-6.3,1.3-9.6,1.6
		c-0.3,0-1.4-2.7-0.9-3.5c0.8-1.7,2.3-3.2,3.8-4.5c6.8-5.9,6.9-7.5,1.1-14.1c-1-1.1-1.6-2.6-2.3-4
		C-880.7,2059.9-880.3,2059.5-879.8,2059.1z"/>
	<path fill="#FFFFFF" d="M-989.4,2092c-2.4-4.2-4.3-7.7-6.3-11.2c0.3-0.6,0.6-1.1,0.9-1.7c2.2,0.7,5.4,0.7,6.4,2.1
		C-986.6,2084.1-985.2,2087.8-989.4,2092z"/>
	<path fill="#FFFFFF" d="M-988.3,2097.5c-2.7,2-4.4,3.6-6.4,4.6c-0.6,0.3-2-1.1-3-1.8c1.9-1.6,3.6-3.3,5.6-4.7
		C-991.7,2095.4-990.3,2096.4-988.3,2097.5z"/>
	<path fill="#FFFFFF" d="M132.3,2080.5c0,12.3-0.1,24.7,0.1,37c0.1,3.5-1.1,5.7-3.9,7.3c-0.3,0.2-0.6,0.4-0.8,0.5
		c-5.8,3.8-12.2,6.4-18.7,3c-6.2-3.2-7.6-9.8-7.7-16.3c-0.2-21-0.1-42,0-63c0-2.6,0.5-5.3,1.2-7.9c2.2-7.8,9.1-11.6,17.1-9.2
		c3.1,0.9,6,2.7,9,4.2c2.8,1.4,3.9,3.6,3.8,6.8C132.2,2055.5,132.3,2068,132.3,2080.5z"/>
	<path fill="#FFFFFF" d="M-692,2061.8c1.4-8,1.9-15.4,4-22.1c2.1-6.7,8-9,16.4-8.2c5.4,0.5,10.6,4.6,11.8,10.5
		c1.1,5.3,1.5,10.8,1.8,16.2c0.1,1.1-1.8,3.4-2.8,3.4C-670.5,2061.9-680.3,2061.8-692,2061.8z"/>
	<path fill="#FFFFFF" d="M-376.9,2080.4c0-10.8-0.5-21.7,0.1-32.4c1-16.2,13.8-19.7,24-14.6c6.4,3.3,7.9,9.9,8,16.2
		c0.3,20.6,0.5,41.3,0,61.9c-0.4,13.9-9.9,21.1-21.5,17.3c-6.3-2.1-10.4-8.2-10.5-16.5C-377,2101.8-376.9,2091.1-376.9,2080.4z"/>
	<path fill="#FFFFFF" d="M205.6,1985.6c-0.2,7.5-6.6,13.4-14.1,13c-7.8-0.4-13.9-6.8-13.5-14.3c0.3-6.7,7.2-13.4,14-12.7
		C199.8,1972.5,205.8,1976.6,205.6,1985.6z M195.3,1987c0.5,0,1-0.1,1.6-0.1c0.9-2.4,3.1-5.5,2.3-7.1c-2.9-5.9-8.7-2.9-13.9-3.9
		c0.4,6.5-0.7,12.5,0.7,18.2c0.7,0,1.4,0,2.1-0.1c0.1-2.4,0.2-4.7,0.3-7.2c6.3-1.7,5.3,7.6,11.4,7
		C198.1,1991.2,196.7,1989.1,195.3,1987z"/>
	<path d="M195.3,1987c1.4,2.1,2.8,4.3,4.4,6.9c-6.1,0.5-5.1-8.7-11.4-7c-0.1,2.5-0.2,4.8-0.3,7.2c-0.7,0-1.4,0-2.1,0.1
		c-1.3-5.7-0.3-11.7-0.7-18.2c5.2,1,11-2,13.9,3.9c0.8,1.6-1.5,4.7-2.3,7.1C196.4,1986.9,195.8,1986.9,195.3,1987z M188.4,1984.5
		c2.7-0.5,5.2-0.8,7.5-1.5c0.3-0.1,0.5-2.9,0.1-3c-2.4-0.9-4.9-1.4-7.7-2.1C188.4,1980.5,188.4,1982,188.4,1984.5z"/>
	<path fill="#FFFFFF" d="M188.4,1984.5c0-2.5,0-4,0-6.6c2.8,0.7,5.3,1.2,7.7,2.1c0.3,0.1,0.2,2.9-0.1,3
		C193.6,1983.7,191.1,1984,188.4,1984.5z"/>
</g>
<g>
	<g>
		<path fill-rule="evenodd" clip-rule="evenodd" fill="#CD2029" d="M24.3,23.6c0.1,0.3-0.1,0.6-0.2,0.8c-0.3,0.2-0.6,0.5-1,0.4
			c-0.2-0.1-0.4-0.3-0.3-0.5c0.3-0.5,0.9-0.7,1.4-0.8L24.3,23.6L24.3,23.6z"/>
		<path fill-rule="evenodd" clip-rule="evenodd" fill="#CD2029" d="M40.3,20.9c0.6,0.4,0.2,1.1,0.2,1.7c-0.5,0.9-1.9,1.1-1.7,2.4
			c-0.6,0.9-2,0.3-2.9,0.3c-0.3-0.1-0.7-0.2-0.7-0.5c0.1-0.6,0.9-0.7,1.2-1.3c0.5-0.8-0.2-2.1,0.6-2.7
			C38.1,20.8,39.2,20.9,40.3,20.9L40.3,20.9z"/>
		<path fill-rule="evenodd" clip-rule="evenodd" fill="#CD2029" d="M24.8,20.6c0.1,0.6,0.3,1.2,0,1.8c-0.1,0.1-0.3,0-0.4,0.1
			c-0.3-0.7-0.7-1.4-1.1-2c0-0.2,0-0.4,0.2-0.5C24.1,20,24.6,20.1,24.8,20.6L24.8,20.6z"/>
		<path fill-rule="evenodd" clip-rule="evenodd" fill="#CD2029" d="M48.3,15.7c1,1,1.9,2,1.9,3.4c0.6,0.9-0.5,1.5-0.9,2.2
			c-0.5,0.5-1.3,0.3-1.9,0.2c-0.2-0.1-0.3-0.4-0.2-0.6c0.6-1.2,3-1.9,1.8-3.5c-0.3-0.6-1.2-0.9-1-1.6C48,15.8,48.2,15.6,48.3,15.7
			L48.3,15.7z"/>
		<path fill-rule="evenodd" clip-rule="evenodd" fill="#CD2029" d="M33.7,10.5c2.5-0.8,5.9-1.3,8.2,0.2c1.6,0.9,3.2,2.1,4.6,3.4
			c1,0.8,0.7,2.1,0.8,3.2c-0.3,1.3-1.3,2.3-1.4,3.6c-0.9,0.8,0.2,2.2-0.6,3c-0.5,0.9,0.8,1.7-0.3,2.3c-0.9,0.5-2.3,1-3.3,0.2
			c-0.2-0.2-0.2-0.5-0.2-0.7c0.4-0.4,0.7-0.8,0.8-1.3c-0.1-1.3-0.9-2.4-0.9-3.7c-0.3-0.8-1-0.3-1.5-0.4c-1.4,0.1-3.2-0.5-4.3,0.6
			c-1.6,0.7-3.7,0.8-5.3,0c-0.3,0-0.5,0.3-0.6,0.5C29,22.8,28,24.1,28,25.7c-0.2,0.5-0.7,0.6-1.1,0.6c-0.8-0.2-1.6-0.3-2.5-0.1
			c-0.2-0.1-0.4-0.2-0.4-0.4c0.4-1,1.2-1.8,1.4-3c0.2-0.9,0.2-2-0.2-2.8c-0.5-0.5-1.2-0.4-1.8-0.6c-0.4-0.1-0.8-0.3-1.3-0.4
			c-0.7,0.3-0.7,1.3-1.5,1.4c-0.5,0.3-0.5,1-1.1,0.9c-1.8-0.8-3,1.3-4.7,1.5c-2-0.2-3.6,0.5-5.1,1.6c-0.2,0.1-0.5,0-0.7,0
			c-0.4-0.3-0.6-0.6-0.5-1.1c0-0.6,0.4-1.2,0.2-1.9c-0.7-0.8-1-2-0.7-3.1c0.2-0.3,0.3-0.8,0.6-0.9c0.6,0,0.5,0.7,0.7,1
			c0.2,0.3,0.4,0.6,0.8,0.6c1.1-0.2,1.8-1.4,2-2.5c-0.1-1.1,1.4-1.4,1.4-2.4c0-0.8,0.4-1.7,1.1-2.2c0.6,0.1,1,1,1.6,0.4
			c0.4-0.3,0.7,0.2,1.1,0c2.4-2,5.2-3.3,8.3-3.6C28.5,8.8,30.6,11.5,33.7,10.5L33.7,10.5z"/>
		<path fill-rule="evenodd" clip-rule="evenodd" fill="#CD2029" d="M57.4,18.9c0.1-0.1,0.4-0.1,0.5,0c0.6,0.2,0.3,1,0.3,1.5
			c-0.5,5.8-4.6,11.4-10,14c-2.3,1.1-4.9,1.6-7.7,1.7L30.3,36L30,35.7c0-1.9,0-3.6,0.1-5.4c0.2-0.2,0.4-0.4,0.7-0.3l10.3,0
			c4.1-0.2,8-2.6,9.9-6.4c0.7-1.3,1-2.8,1.2-4.3c0.1-0.2,0.4-0.3,0.5-0.4L57.4,18.9L57.4,18.9z"/>
		<path fill-rule="evenodd" clip-rule="evenodd" fill="#CD2029" d="M5.4,18.9c0.2-0.1,0.3,0,0.5,0.1c0.5,0.4,0.2,1.2,0.4,1.7
			c0.6,3.9,4.2,7.7,8,8.7c0.8,0.2,1.7,0.4,2.6,0.4l11.3,0c0.2-0.1,0.5-0.1,0.6,0l0.3,0.4l-0.1,3.8c0,0.6,0.4,1.5-0.3,1.9L16,36
			C9.7,35.5,3.6,31,1.3,25.1c-0.7-1.9-1.2-3.8-1.2-5.9c0.1-0.1,0.3-0.3,0.4-0.3L5.4,18.9L5.4,18.9z"/>
		<path fill-rule="evenodd" clip-rule="evenodd" fill="#CD2029" d="M42.2,0.8C48.6,1.2,55,6,57.1,12.2c0.6,1.8,1.1,3.6,1,5.6
			l-0.4,0.3L53,18c-0.1,0.1-0.4,0.1-0.5,0c-0.7-0.4-0.4-1.3-0.6-1.9c-0.7-3.9-4.2-7.8-8-8.8c-0.8-0.2-1.7-0.4-2.6-0.4l-8.6-0.1
			l-2.2,0.1c-0.2-0.1-0.3-0.2-0.4-0.4V1.1l0.4-0.4L42.2,0.8L42.2,0.8z"/>
		<path fill-rule="evenodd" clip-rule="evenodd" fill="#CD2029" d="M28.8,0.8c0.6,0.2,0.2,1,0.3,1.5c-0.1,1.4,0,2.9-0.1,4.3
			c-0.3,0.6-1,0.3-1.5,0.3L17.4,6.8c-4.2,0.1-8.3,2.6-10.1,6.5c-0.7,1.4-1,2.8-1.2,4.4c-0.2,0.2-0.3,0.3-0.6,0.3l-4.4,0
			c-0.2,0.1-0.5,0.1-0.7,0c-0.6-0.3-0.3-1.1-0.3-1.6C0.5,10.1,5.6,3.7,11.7,1.7c1.6-0.5,3.2-0.9,5-1L28.8,0.8L28.8,0.8z"/>
	</g>
	<g>
		<path fill-rule="evenodd" clip-rule="evenodd" fill="#CD2029" d="M123.7,16.5c0-5.6,2.2-9.5,8.3-9.5c6.1,0,8.3,3.9,8.3,9.5l0,7.5
			c0,5.6-2.2,9.5-8.3,9.5c-6.1,0-8.3-3.9-8.3-9.5L123.7,16.5L123.7,16.5z M134.9,15.6c0-3-1-4.2-2.9-4.2c-1.9,0-2.9,1.2-3,4.2l0,9.4
			c0,2.9,1,4.2,2.9,4.2c1.9,0,2.9-1.2,2.9-4.2L134.9,15.6L134.9,15.6z"/>
		<polygon fill-rule="evenodd" clip-rule="evenodd" fill="#CD2029" points="138.9,4.7 125.5,4.7 125.5,0.3 138.9,0.3 138.9,4.7 		
			"/>
		<polygon fill-rule="evenodd" clip-rule="evenodd" fill="#CD2029" points="122.8,33.1 116.8,15.1 122.2,7.5 116.5,7.5 110.6,16.5 
			110.5,16.5 110.6,0.3 105.2,0.3 105.2,33 110.5,33.1 110.5,24.1 113.3,20.1 117.5,33.1 122.8,33.1 		"/>
		<path fill-rule="evenodd" clip-rule="evenodd" fill="#CD2029" d="M82.9,21.2l-11.2,0l0,3.7c0,3,1,4.2,2.9,4.2c1.9,0,3-1.2,3-4.2
			v-0.6l5.3,0c-0.1,5.4-2.3,9.1-8.3,9.1c-6.1,0-8.3-3.9-8.3-9.5l0-7.5c0-5.6,2.2-9.5,8.3-9.5c6.1,0,8.3,3.9,8.3,9.5L82.9,21.2
			L82.9,21.2z M77.5,16.8l0-1.3c0-3-1-4.2-2.9-4.2c-1.9,0-3,1.2-3,4.2l0,1.3L77.5,16.8L77.5,16.8z"/>
		<path fill-rule="evenodd" clip-rule="evenodd" fill="#CD2029" d="M96.9,16.9l5.3,0v-0.7c-0.1-5.5-2.3-9.2-8.3-9.2
			c-6.1,0-8.3,3.9-8.3,9.5l0,7.5c0,5.6,2.2,9.5,8.3,9.5c6,0,8.2-3.7,8.3-9.2l-5.3,0v0.6c0,2.9-1.1,4.2-3,4.2c-1.9,0-2.9-1.2-2.9-4.2
			l0-9.4c0-2.9,1.1-4.2,3-4.2c1.9,0,3,1.2,3,4.2v0.7L96.9,16.9L96.9,16.9z"/>
		<polygon fill-rule="evenodd" clip-rule="evenodd" fill="#CD2029" points="241.5,33.8 237.1,33.8 237.2,29.3 241.5,29.4 
			241.5,33.8 		"/>
		<path fill-rule="evenodd" clip-rule="evenodd" fill="#CD2029" d="M168.6,7.2l-0.1,26l-5.3,0l0-2.6c-2.4,1.9-3.5,3.1-6.8,3.1
			c-2.9,0-4.7-2.1-4.7-5.5l0.1-21l5.6,0l-0.1,20.2c0,1.3,0.8,1.9,2,1.9c1.2,0,2.3-0.7,3.6-1.6L163,7.2L168.6,7.2L168.6,7.2z"/>
		<path fill-rule="evenodd" clip-rule="evenodd" fill="#CD2029" d="M172.7,33.3l0.1-26l5.3,0l0,2.6c2.3-1.9,3.5-3.1,6.8-3.1
			c2.9,0,4.7,2.1,4.7,5.5l-0.1,21l-5.6,0l0.1-20.2c0-1.3-0.8-1.9-2-1.9c-1.2,0-2.3,0.7-3.6,1.6l-0.1,20.4L172.7,33.3L172.7,33.3z"/>
		<polygon fill-rule="evenodd" clip-rule="evenodd" fill="#CD2029" points="193.7,33.3 193.8,0 199.4,0 199.3,33.3 193.7,33.3 		"/>
		<path fill-rule="evenodd" clip-rule="evenodd" fill="#CD2029" d="M202.4,11.8l0-4.5l3.1,0l0-7l5.6,0l0,7l3.7,0l0,4.4l-3.7,0l0,15
			c0,1.4,0.6,2.1,1.9,2.1l1.8,0l0,4.7c-0.7,0.2-1.4,0.3-2.8,0.3c-4.2,0-6.5-1.9-6.5-5.9l0-16.2L202.4,11.8L202.4,11.8z"/>
		<path fill-rule="evenodd" clip-rule="evenodd" fill="#CD2029" d="M228.6,28.1c-1.1,0.8-2.1,1.3-3.2,1.3c-1.5,0-2.7-0.8-2.7-4.2
			l0-9.7c0-3.4,1.2-4.2,2.7-4.2c1.1,0,2.1,0.6,3.2,1.4L228.6,28.1L228.6,28.1z M234.2,33.5l0.1-33.3l-5.6,0l0,9.5
			c-2.2-1.7-3.3-2.7-5.8-2.7c-3.5,0-5.7,2.5-5.7,7.2l0,12.5c0,4.7,2.2,7.3,5.7,7.3c2.8,0,4.1-0.9,6-3.2h0.1l0,2.7L234.2,33.5
			L234.2,33.5z"/>
	</g>
</g>
</svg>
